<?xml version="1.0" encoding="UTF-8"?>
<svg version="1.2" baseProfile="tiny-ps" data-bbox="0 0 400 400" viewBox="0 0 400 400" xmlns="http://www.w3.org/2000/svg" data-type="color">
    <title>Messy Makers</title>
    <g>
        <path fill="#FFFFFF" d="M400 0v400H0V0z" data-color="1"/>
        <g fill-rule="evenodd">
            <path d="M142 39h-2v1l-4 3-1 1v9a91 91 0 0 1 3 5l1 1 1 1v1l1 1 1 1v2l1 1v1l1 1v2l1 1a32 32 0 0 1-2 14v2l-1 1v1l-1 3v4l-1 5 1 3v3l1 2v4l1 1v5c0 2-5 4-7 3l-1-1h-1l-1-1h-1a41 41 0 0 1-9-11l-2-5h-1v-1l-1-1v-3l-1-1v-4l-1-2v-5l-1-2v-3l-1-3v-5l-1-2v-3l-1-2v-3l-1-1v-1a62 62 0 0 1-1-3l-1-1-1-2-6-4-1-1h-3l-4 1h-1v1h-1a14 14 0 0 0-3 3v1l-1 1v1h-1v1l-1 2v1l-1 1a126 126 0 0 0 1 23l1 1v2l1 1v1l1 1v1a30 30 0 0 0 3 5v1a39 39 0 0 0 13 12h1v1h2v1h1l1 1h1a64 64 0 0 1 11 12v1l1 1 1 1v1a36 36 0 0 0 2 3v2l1 1v6l-3 3-1 1h-2v1h-5l-1-1h-3l-1-1-1-1h-2l-1-1h-1l-1-1h-1v-1h-2v-1h-1l-1-1h-1l-1-1h-1l-1-1h-1l-1-1h-1l-1-1h-1c-2-1-5 0-8 1l-2 2h-1v9l1 1 2 3 4 2 3 1h7l4 1h7l2 1c2 0 5 3 5 4v3l-3 2v1h-1l-1 1h-2v1h-3l-1 1h-1l-1 1h-2l-1 1h-3l-1 1h-2l-1 1h-3l-2 1h-2l-1 1h-5l-2 1h-5l-4 1h-8l-4 1h-7l-2 1h-3l-1 1h-2l-1 1h-1l-1 1-1 1h-1l-1 1-1 1a29 29 0 0 0-5 5h-1v1l-1 2a69 69 0 0 0 0 17v1l1 1v1l1 1v1a23 23 0 0 0 4 4l1 2 2 1 1 1h1l1 1h2a38 38 0 0 0 13 0h1v-1h1l1-1h1a35 35 0 0 0 10-10l1-2 1-1 1-1 1-1 1-2 1-1 1-1 1-2a52 52 0 0 1 8-7h1v-1h5v1l2 1v11h-1v1l-1 2-1 1-1 2-1 1a55 55 0 0 1-7 5h-2v1h-2l-1 1-2 1h-1l-1 1h-2l-1 1h-1a281 281 0 0 1-12 7l-5 5v8h1v2l1 1 1 1 1 1 5 4h6v-1h2v-1h1l1-1a66 66 0 0 0 13-13l1-2 1-1v-1l1-1a14 14 0 0 0 2-3 18 18 0 0 0 2-3l1-1c0-1 4-5 6-5h6v1l2 1 2 3 1 1v1l1 1v9l-1 1v8l3 4 1 1 3 1h1l2 1 3-1h2l2-1v-1l1-1v-1h1v-2l1-1v-2a368 368 0 0 0 2-2c1-1 4-2 5-1s2 2 1 3v3l-1 1v2l-1 1v2l-1 1v3l-1 1v3l-1 1v2l-1 1v3l-1 1v2l-1 1v2l-1 1v2l-1 1v2l-1 1v2l-1 1v2h-1v3l-1 1v1l-1 1v1l-1 1v1l-1 1v2l-1 1v1l-1 1v1h-1v2h-1v1l-1 2v1l-1 1v1l-1 1a29 29 0 0 1-3 5l-1 3-1 1-1 1a24 24 0 0 1-1 3l-1 1v1h-1v1l-1 2h-1v1l-1 1v1l-1 1-1 1v2l-1 1v1h-1l-1 2a64 64 0 0 1-1 3l-1 3v2a31 31 0 0 0 1 11v2l1 2 2 2 1 1 10-1h2v-1h1l2-1h1v-1l1-1a17 17 0 0 0 5-4v-1l1-1v-1h1v-2l1-1v-2l1-1v-3l1-1v-5l1-2v-3l1-2v-4l1-2v-6l1-5 1-3v-5l1-2v-3l1-2v-3l1-1v-4l1-1v-1l1-4v-2l1-1v-2l1-1v-3l1-1v-2l1-1v-2l1-1v-2l1-1 1-3v-1l1-1v-1l1-1v-1l1-1v-1l1-1 1-1 2-3c1-2 4-1 4 0h1l1 1 2 3 1 1v2a30 30 0 0 1 1 13l-1 1v2l-1 2v2l-1 1v2l-1 1v2l-1 2v1l-1 5a33 33 0 0 0 1 9v2h1l1 2 4 3h1a77 77 0 0 0 13 0l2-1h1v-1h1l1-1 1-1v-2l1-3v-7l-1-2v-5l-1-1v-1h-1v-1a27 27 0 0 0-2-5h-1l-1-3-1-1v-2h-1v-1a28 28 0 0 1 1-11v-2l1-1v-1a12 12 0 0 1 4-3v-1h2c2-2 5 0 6 2l2 4h1v2l1 2 1 1v2l1 1v1l1 1v1l1 1v3l1 1v1l1 1v3l1 1v2l1 1v3l1 1v4l1 2v5a58 58 0 0 1 1 7l1 2v8l1 4v8l1 2v3l1 1v2l1 1v1l1 2a19 19 0 0 1 1 2v1l1 1 1 1v1l1 1 4 3 1 1 4-1 1-1 2-1 1-1v-1h1v-2h1v-2a30 30 0 0 0 0-10l-1-1v-2h-1v-2h-1v-1l-1-3v-1h-1v-1l-1-1v-2l-1-1v-1l-1-1-1-2a102 102 0 0 1-6-13v-2l-1-1v-2h-1v-3l-1-1v-2h-1v-2l-1-1v-3l-1-1v-2l-1-2v-3l-1-1v-12l1-1v-3h1l1-2v-1h1l1-1h6v1l2 2 1 1v1l1 1v2h1v3l1 1v2h1v3h1v2h1v1l1 1v2l1 1 1 1 1 1v1l1 1 4 4h7l1-1 2-1 2-3a86 86 0 0 0 0-15v-2l1-2v-1l3-2v-1h4l2-1a29 29 0 0 1 6 1h1v1h2l1 1a19 19 0 0 1 7 8l1 2v1l1 1v3l1 2v3l1 1v8l1 3v5l1 2 1 3v1l2 1 1 1 1 1h3l6 1 1-1h2l2-1a52 52 0 0 1 2-2c1 0 3-2 3-4a36 36 0 0 0-1-13v-1l-1-1v-2l-1-1v-1l-1-1-1-1v-1l-1-1v-1h-1v-1l-1-1-1-2-1-1-1-2-2-3-1-2-1-1a24 24 0 0 1-3-4l-1-1a26 26 0 0 1-5-9 22 22 0 0 1 1-8v-1l1-1 1-1 1-2 2-2 1-1 1-1h9l1 1h2l1 1h1l3 1a19 19 0 0 1 4 2l1 1h1l1 1 1 1a35 35 0 0 1 6 6l1 1v1h1v2l1 1v2l1 1v2l1 1v3l1 1v3l1 1v2l1 1v3h1v2h1v1l1 2v2h1v1l1 1 1 3 1 1 1 1 1 1a25 25 0 0 0 10 8c1 1 7 0 10-2l3-3v-1l1-1 1-1v-1l1-1v-4a91 91 0 0 0-2-33v-2h-1v-2h-1v-1l-1-1v-1l-2-3-1-1a32 32 0 0 0-10-8v-1h-1v-1h-2l-1-1h-1l-1-1h-3l-1-1a34 34 0 0 0-12 1h-5a44 44 0 0 1-10 0h-2l-1-1h-1l-1-1h-2v-1h-1l-1-1-1-1a22 22 0 0 1-4-4l-1-1v-6l1-1 6-6a39 39 0 0 0 6-6l1-2v-8l-1-1v-1l-2-2a35 35 0 0 0-6-4v-1h-1v-1l-4-4v-1l-1-2 1-4v-1h1v-1l4-3 1-1h1l1-1 1-1h1a105 105 0 0 1 16-8l2-1h2l1-1h2l1-1h2l1-1h4l1-1h5a106 106 0 0 1 29 2c3 0 6-1 7-4l1-1 1-2 1-1v-1l1-6-1-6v-1l-1-1v-1l-2-1-1-2-1-1h-1l-1-1h-1l-1-1h-2l-1-1h-2a99 99 0 0 0-19 1h-1l-1 1h-3v1h-3l-1 1h-1l-1 1a43 43 0 0 1-3 1l-1 1h-1l-1 1-1 1h-2a8 8 0 0 1-2 2 30 30 0 0 1-3 2l-1 1a113 113 0 0 0-14 9 53 53 0 0 1-4 3 126 126 0 0 1-17 12h-1l-1 1a34 34 0 0 1-11-1h-2v-1h-2v-1l-3-2v-1l-1-1v-5h1v-1l4-4h1l1-1h2v-1h3l1-1h2l1-1h2a25 25 0 0 1 3-2l2-1 1-1 1-1a162 162 0 0 1 5-5l1-1v-1h1v-2l1-1v-10l-1-1v-2l-1-1c0-1-3-4-5-4h-6l-1 1h-1l-1 1-7 7a71 71 0 0 1-9 7v1h-2l-1 1h-3l-1-1h-1l-1-1h-1l-1-1h-1l-1-1-3-4-1-1V93l1-1v-2l1-1v-2l1-2 1-3 1-1v-2l1-1v-2h1v-3h1v-2l1-1v-2l1-1V56a12 12 0 0 0-4-7l-3-2a145 145 0 0 1-3-1h-13l-2 1-6 6v1h-1l-1 3v1h-1v2l-1 1v1l-1 1v3l-1 1v1a23 23 0 0 0 1 12l1 1v2l1 2h1v3l1 1v4l-1 1-2 3a20 20 0 0 1-5 3l-1 1h-7a15 15 0 0 1-4-3h-1v-1l-2-1h-11l-1 1-2 1a151 151 0 0 1-4 4l-1 2-1 1-1 2-5 5h-8l-3-3v-1l-1-2v-6l-1-3v-3l-1-1v-3l-1-1v-1l-1-1-1-3-1-1v-1l-1-1v-1l-1-1-1-2v-1l-1-1v-3l-1-15a127 127 0 0 0-1-18v-1h-4zm100 9h3l1 1 1 1 2 1 1 1 1 1 1 1v2l1 1v7l-1 1v3l-1 1v1l-1 1v2l-1 2-1 1v2l-1 1v2h-1v3l-1 1v2h-1v2l-1 1v4l-1 2v9l1 1 2 3 2 2 1 1 2 2h2l1 1h8l1-1h1l1-1 1-1 2-1 1-1 1-1v-1l2-1v-1a104 104 0 0 0 1-1h1v-1l2-1 1-1q0-1.5 0 0l2-2 1-1 1-1h2l2-1 2 1h2l1 2 1 1v2l1 1v2l1 3-1 3v2l-1 1v1l-2 3-1 1-2 2-1 1-2 1-1 1-1 1h-1l-1 1h-2l-1 1h-2l-1 1h-2l-1 1h-2v1h-1l-1 1h-2l-1 1-2 2v1l-1 1-1 1v6h1v1l2 3 1 1h1a4 4 0 0 1 1 0l1 1 1 1h15l1-1h2v-1h2v-1h2v-1h2l1-1 1-1 1-1h1l2-2 1-1 1-1 2-1 1-1 1-1 2-1 1-1 1-1h1l1-1 1-1v-1h1l1-1 2-1h1v-1l1-1h1l1-1 2-1 1-1 1-1 3-1v-1h1l1-1h1l1-1h1l1-1 1-1h2l1-1h2l1-1h2l1-1h3l1-1h7l7-1 3 1h3l1 1h1l1 1 5 4 1 1v2l1 1v8l-1 1v2l-1 1v1l-1 1v1h-1l-1 1-6 1-2-1h-4l-2-1h-5a49 49 0 0 0-15 0h-2l-2 1h-5l-1 1h-2l-1 1h-2l-1 1h-1l-1 1h-2l-1 1h-1l-2 1h-1l-1 1h-1l-1 1h-1l-1 1h-1l-1 1h-1l-1 1-3 1-1 1h-2v1l-1 1h-1l-1 1h-1l-2 2v1l-1 1-1 1v9l1 1 1 1v1l1 1 2 1 1 1 3 2 2 2c0-1 3 2 3 4v8h-1v1l-2 2-2 2h-1l-1 1-2 2-2 1-2 4h-1v7l1 1 1 2 3 3v1l1 1h2l1 1h1l1 1h1l1 1h2l1 1h3a19 19 0 0 0 9 0h2l2-1h1a49 49 0 0 1 14 1h1l1 1h2v1h2v1l1 1h1l1 1 1 1 2 1 3 4 2 2v1l2 2v1h1v2l1 2v1h1v2l1 1v4l1 2v3a114 114 0 0 1-1 24l-3 4-1 1h-1l-1 2h-1v1h-7l-1-1h-1l-1-1-1-1h-1l-4-4v-1l-2-2-1-3h-1v-1l-1-1v-1l-1-1v-2h-1v-2l-1-1v-2l-1-1v-2l-1-1v-3l-1-1v-3l-1-1v-2l-1-1v-2l-1-1v-1l-1-1-1-2v-2h-1l-1-1-4-4-1-1h-1l-1-1h-1l-1-1-1-1-1-1h-2l-1-1h-2l-1-1h-1l-1-1h-2l-1-1h-9v1h-1l-1 1h-1l-1 1-1 1-1 1v1l-2 2v1l-1 1v2a18 18 0 0 0 0 8v2l1 1v1l1 1 1 2 1 1 1 1 1 1 1 2v1l1 1 1 2h1l2 4h1v1l1 1 1 3 1 1 1 1 1 1v1a27 27 0 0 1 3 5v1l1 1v1l1 1v12c0 2-2 3-2 3-1-1-1 0-1 1h-1l-1 1h-2l-1 1h-7v-1l-2-1-1-1c-1 1-1 0-1-1l-1-1-1-1v-5l-1-3v-9l-1-1v-4l-1-1v-3l-1-2v-2l-1-1v-1l-1-1-2-3-1-1-1-1-2-2-1-1h-1l-1-1h-3v-1h-11l-1 1h-1l-1 1a11 11 0 0 0-3 3v19l-1 1-1 2h-2l-1 1-1 1h-1l-3-1h-1l-4-5-1-1v-1l-1-1v-1h-1v-2h-1v-2l-1-2v-1h-1v-2l-1-1v-2l-1-1v-2l-1-1v-1l-1-1-2-3v-1h-2l-1-1h-4l-1 1h-2l-1 1-1 1-1 1v2l-1 1v2l-1 1a47 47 0 0 0 1 14v2l1 1v3l1 1v3l1 1v2l1 1v1l1 1v3h1v2l1 1v2h1v2l1 2 1 2a158 158 0 0 1 9 18v3h1v2h1v2l1 1v4l1 2-1 2v3l-1 2-3 3h-1l-1 1-3-1h-1l-2-2v-1l-1-1-1-1-1-1v-2l-1-1v-1l-1-1v-2l-1-1v-3l-1-2v-4l-1-3v-11l-1-4v-4l-1-3v-5l-1-2v-4l-1-1v-3l-1-1v-2l-1-2v-3l-1-1v-1l-1-1v-2l-1-1v-2l-1-1v-1l-1-2v-1l-1-1v-2l-1-1v-1l-1-1v-1l-1-1-1-2-1-1-1-2h-8l-1 1-1 1-2 1-2 3v1l-1 1v1l-1 1v11l1 2v2h1l1 1v2h1v2h1v2l1 1v1h1v2h1v3l1 2a48 48 0 0 1-1 12l-1 3h-2l-1 1h-2l-3 1h-4a69 69 0 0 0-4-1h-2l-1-1-1-1v-1l-1-1-1-1v-3l-1-5 1-2v-3l1-1v-2l1-1v-2l1-1v-3l1-1v-2l1-1v-4a30 30 0 0 0 0-12v-3h-1v-1l-1-1v-1l-1-1-2-2h-1l-1-1h-4l-2 2-1 1-1 1-1 2v1l-1 1v1h-1v2l-1 1v1l-1 1v2l-1 1v1l-1 1v3l-1 1v1l-1 1v2l-1 1v2l-1 1v4l-1 1v3l-1 1v2l-1 2v2l-1 1v5l-1 2v3l-1 1v6l-1 2v4l-1 2v6l-1 2v4l-1 2v5l-1 2v2l-1 2v2l-1 1c1 0 0 0 0 0v2l-1 1v1l-1 1v1l-1 1-1 1-3 3-1 1h-2v1l-1 1h-2v1h-8l-3-2v-1h-1v-2h-1v-3a39 39 0 0 1 0-10v-1l1-1v-1l1-1v-2l1-1a77 77 0 0 0 3-6l1-1 1-2 1-1 1-2 1-1v-1l1-1v-1l1-1v-1l1-1 1-1v-1h1v-2l1-1 1-1v-2h1v-1l1-1v-2h1v-1l1-1 1-1v-3h1v-2h1v-1l1-1v-1l1-2v-1l1-1v-2l1-1v-1l1-1v-1l1-1v-3h1v-2l1-1v-1l1-1v-3l1-1v-2l1-1q-1.5 0 0 0v-3l1-1v-1l1-2v-3l1-1v-2l1-1v-2l1-3v-2l1-1v-2l1-1v-5l-1-1-1-1h-5l-1 1c-1-1-1 0-1 1h-1v1l-1 1v1h-1v2l-1 1v2l-1 1h-1v1l-4 1-4-1-3-1v-1l-2-1-1-1v-3l1-2v-5l1-2v-6l-1-1v-2h-1l2-4 2-3a29 29 0 0 1 3-5l1-1 1-3 2-3 2-3 1-2 2-3 2-3 3-5 2-4v-2c0-4 1-4 2-4h1l1-2 3-5 2-5v-8l1-14c1-1 4 1 6 5l1 2 1-2 1-2 2-4 2-4 2-4 2-4 2-4 2-4 3-5 2-3 1-2 2-1h3q0-1.5 0 0l2-1 1-1v-1l1-1 1-1v-1a22 22 0 0 1 3-4l1-1 3-3 1-1v-1h12l2 2 1 1c1 0 2 0 1 1h1l1 1h8l1-1h2v-1h1l1-1h1l3-3v-1h1v-3l1-1v-2l-1-2v-2l-1-1v-2l-1-1-1-2v-2l-1-1v-3l-1-1 1-2v-4l1-1v-3l1-1v-1l1-1v-1l1-1v-2h1v-1l1-1v-1l4-3 1-1 1-1zm-141 5h1l1 1h1l1 1 2 3 1 1 1 1 1 1v2l1 1v2l1 2v5l1 2v6l-4 7-1 2-2 2-3 6-4 6a25 25 0 0 1-5-6v-1l-1-1v-2h-1v-1l-1-1v-1l-1-1v-3h-1v-3l-1-1v-6a37 37 0 0 1 2-16v-2l1-1 1-1 4-3 1-1zm43 96v14l2-3 2-4-1-1-1-1zq0-1.5 0 0m-85 31c1 1-1 4-1 4l-3 3c0 2-1 3-2 3l-1 3-2 2-1 2-1 1-2 3-1 2-5 8-2 4-1 3-1 1c-1 1-1 1-2-1l-1-2h-1v-2l-1-1v-1h-1v-2l-1-1v-13l1-1v-1l1-1v-1l2-1 2-3 1-1 2-2h2l1-1h1l1-1h1v-1h3l2-1h6z" fill="#1c396a" data-color="2"/>
            <path d="m352 112-3 1h-4l-2 1h-3l-1 1h-2l-1 1h-2l-1 1h-2l-1 1v1l-3 5-3 5-3 7-1 1 1-1h1l-2 3-1 3 1-1h2l1-1h2l1-1h5l2-1h4a52 52 0 0 1 16 0h3l1 1h4l2 1h3l3-1 1-1h1v-1l1-1v-1l1-1v-2l1-1v-3a13 13 0 0 0-1-6v-2l-1-1-5-4-1-1h-2v-1h-6zm-210 34-1 14v12c0 2 1 3 2 1v-4a200 200 0 0 0 1-20l2 5 1 2 6 6h1l3-5 4-7c2-3 2-3 2 11-1 14-1 14 1 13h1l-1-2v-14c0-14 0-13-1-12l-1 1-4 6-5 7-1-1-2-3c-3-7-7-12-8-10m27 0h-1v9l-1 10v8l2 1h5a37 37 0 0 1 6 0l1-1h1c0-2 0-2-7-2h-6v-3l1-5v-3h4c2 0 3-1 3-2h-7v-1a58 58 0 0 0 0-10h12l2-1zm27 0c-5 1-10 7-9 9v2l2 4h5c4-1 6-1 7 1 2 2 2 3 2 5-1 5-10 7-14 3-1-1-1-2-2-1s1 4 4 5c4 1 9 0 13-3 3-3 2-9-2-12h-11c-1 1-2-1-2-3l-1-2 1-1c2-4 6-6 9-5l4 3c1 2 2 2 3 1 0-1-1-4-4-5l-4-2zm21 0c-4 1-10 7-9 9v2l3 4h4c5-1 6-1 8 1s2 3 1 5c-1 5-10 7-13 3-2-1-2-2-3-1s2 4 4 5c4 1 10 0 13-3s2-9-2-12h-10c-1 1-2-1-3-3v-2l1-1c2-4 5-6 8-5l4 3c2 2 2 2 3 1s0-3-3-5l-5-2zm13 0v3l2 2a82 82 0 0 0 5 7l1 1v7l1 8c2 0 1 0 1-2v-12l3-3a104 104 0 0 1 6-8c2-2 2-3 1-3-2 0-2 1-4 3l-7 8-1-2-3-4-2-3-2-1zm65 36-2 4-1 3-2 3-2 4-2 3-1 2-3 4-2 5-2 2-1 2-1 2-1 2-2 2-2 4-3 5a49 49 0 0 1-5 8l-4 6a111 111 0 0 1-5 8l-1 2h3l2 1h1l2 1h3l1 1 1 1 3 2v1l2 2 1 1 1 2v1l1 1v2l1 1v3l1 2v3l1 2v9l1 3v4l1 1v2h1l1 1 1 1 2 1v1h6l9-16v-2l-1-1v-1l-1-1v-1a27 27 0 0 0-3-5l-1-2-1-1-1-1-1-3h-1l-1-2-3-4-1-2-1-1v-1l-1-1-2-2v-1l-1-1-1-2-1-1v-1l-1-1v-12l1-1v-1l1-2 1-1 1-1 1-1 1-1 1-1h2v-1h9l1 1h2l1 1h2l1 1h1l1 1h2l1 1 1 1h2v1h1l1 1 1 1h1l3 4 1 1h1l1 4h1v2l1-2 1-1 1-2 1-1 1-2 2-3 1-2 2-3 1-1 1-2 3-5-3-1h-1a50 50 0 0 0-18 1 22 22 0 0 1-9 0h-1l-1-1h-2l-1-1h-2l-1-1h-1l-2-1-1-1-1-2-2-2h-1v-2l-1-1v-7l1-1h1v-2l1-1v-1h1l3-2 1-1 1-1 1-1 3-2v-1l1-1v-7l-2-4c-2-1-2-1-4 3m-70-2c-3 1-3 2-3 4v4l-1 6v12l1 3h2l-1-2 1-4-1-2v-4h7a80 80 0 0 0 9 12v-3l-5-7q-3-3 0-3c5 0 8-6 6-11-2-4-8-6-15-5m-92 0-1 15-1 12c0 2 2 3 2 1l1-3v-1a200 200 0 0 0 0-20l3 5 1 2 6 6h1l3-5 4-7c1-3 1-3 1 11s0 13 1 13h1v-16c0-14 0-14-2-12h-1l-4 7-4 7-1-1c-2-1-2-2-2-3-3-7-7-12-8-11m71 0-1 1v9l-1 10v8h1l5 1h7l1-1 1-1-7-1h-6v-3l1-6v-2h3l4-1c1-1 0-2-4-2h-3a56 56 0 0 0 0-10h12l2-1zm49 1c-4 0-7 3-9 7v3l2 4 5 1c4-1 6-1 8 1 1 3 2 4 1 6-3 5-10 5-14 2-1-2-1-2-2-1-1 0 1 3 4 4 3 2 6 1 10 0 6-3 6-10 1-14h-11l-2-4c-1-2 2-5 4-6 2-2 3-2 7-1l1 1 1 2c1 2 2 2 2 1 2-1 0-3-2-5l-5-2zm-86 0-2 1-2 1c-2 0-5 7-5 12v8c0 7-1 6 1 6l1-2v-12l4-1 5-1 3 1a617 617 0 0 0 3 0v7l-1 6v1l3 1a242 242 0 0 0-1-24c-1-3-6-5-9-4m13 0 1 2h-1v1a119 119 0 0 0 0 14v11c1 1 2 0 2-1l1-10 3-3 7 8 5 6 1-1a82 82 0 0 0-11-14l6-6c6-6 6-6 4-6v1h-1l-11 9c-4 4-4 4-4-4v-6c1-1 0-1-1-1zm55 2c4 2 5 8 1 10l-8 2h-5v-5l1-5v-3h2zm-65 0c2 0 3 2 4 4v5l-2-1-11 1h-1l1-1c0-2 4-7 6-8zm70 94a173 173 0 0 0-2 4h2l2-2 1-1v-6zm-26 50a4276 4276 0 0 1-5 13l1 1 1 1 1 1v1l2 2h1l3 1 1-1h1l3-3 1-2v-3l1-2-1-2v-4h-1v-3h-1v-1l-1-1v-2l-1-1v-1l-1-1c0-2-1-1-5 7" fill="#e2cd60" data-color="3"/>
            <path d="M233 48h-2l-1 1-1 1-4 3v1l-1 1v1h-1v2l-1 1v1l-1 1v1l-1 1v3l-1 1v4l-1 2 1 1v3l1 1v2l1 2 1 1v2l1 1v2l1 2v2l-1 1v3h-1v1l-3 3h-1l-1 1h-1v1h-2l-1 1h-8l-1-1h-1c1-1 0-1-1-1l-1-1-2-2h-12v1l-1 1-3 3-1 1v1l-3 3v1l-1 1-1 1v1l-1 1-2 1q0-1.5 0 0h-3l-2 1-1 2-2 3-3 5-2 4-2 4-2 4-2 4-2 4-2 4-2 4v1l1 2 2 3 1 1 5-7a80 80 0 0 1 5-7c1-1 1-2 1 12v14l1 2h-1c-2 1-2 1-1-13 0-14 0-14-2-11l-4 7-3 5h-1l-4-4-1-2-2 4-2 3v-2 2a34 34 0 0 1-1 7v3c-1 2-2 1-2-1v-4l-2 5-3 5s-1 3-2 2l1 1 6 10c0 1 0 2 2 3l1 1 4-7a80 80 0 0 1 5-7c2-2 2-2 2 12v16h-1c-1 0-1 1-1-13s0-14-1-11l-4 7-3 5h-1l-6-6-1-2-3-5v-1 10a200 200 0 0 1-1 15c0 2-2 1-2-1l1-20a174 174 0 0 0-7 10l-2 4-1 2-2 3-2 3-1 3-1 1-1 1-2 4-2 3-2 4h1v2l1 1v6l-1 2v5l-1 2v3l1 1 2 1v1l3 1 4 1 4-1v-1h1l1-1v-2l1-1v-2h1v-1l1-1v-1h1c0-1 0-2 1-1l1-1h5l1 1 1 1v5l-1 1v2l-1 1v2l-1 3v2l-1 1v2l-1 1v3l-1 2v1l-1 1v3q-1.5 0 0 0l-1 1v2l-1 1v3l-1 1v1l-1 1v2h-1v3l-1 1v1l-1 1v1l-1 1v2l-1 1v1l-1 2v1l-1 1v1h-1v2h-1v3l-1 1-1 1v1h-1v2l-1 1v1h-1v2l-1 1-1 1v2h-1v1l-1 1-1 1v1l-1 1v1l-1 1v1l-1 1-1 2-1 1-1 2-1 1v1h-1l-1 3a77 77 0 0 1-3 6v1l-1 1v2a39 39 0 0 0 0 11v1h1v2h1v1l3 2h8v-1h2l1-1v-1h2l1-1 3-3 1-1 1-1v-1l1-1v-1l1-1v-2s1 0 0 0l1-1v-2l1-2v-2l1-2v-5l1-2v-4l1-2v-6l1-2v-4l1-2v-6l1-1v-3l1-2v-5l1-1v-2l1-2v-2l1-1v-3l1-1v-4l1-1v-2l1-1v-2l1-1v-1l1-1v-3l1-1v-1l1-1v-2l1-1v-1l1-1v-2h1v-1l1-1v-1l1-2 1-1 1-1 2-2h4l1 1h1l2 2 1 1v1l1 1v1h1v3l1 2v2l-1 8v4l-1 1v2l-1 1v3l-1 1v2l-1 1v2l-1 1v3l-1 2 1 5v3l1 1 1 1v1l1 1 1 1h3l2 1h4c-1 0-2 1 4-10 6-10 6-11 6-9v-3h-1v-2h-1v-1l-1-1v-2h-1v-2h-1v-2l-1-1h-1v-2l-1-2v-11l1-1v-1l1-1v-1l2-3 2-1 1-1 1-1h8l1 2 1 1 1 2 1 1v1l1 1v1l1 1v2q1.5 0 0 0a380 380 0 0 1 30-52l-1-3v-12l1-6v-6c1-2 9-3 14 0h1l1-2a52 52 0 0 0 8-14l1-2 2-2 1-3 2-4a91 91 0 0 0 6-14v-3l1-1 1-1v-1l2-2 1-1h1l1-1 1-2 1-3 5-10 6-10 3-4 3-5h-1l-1 1h-2l-1 1-1 1-2 2q0-1.5 0 0l-1 1-2 1v1h-1a104 104 0 0 1-1 2l-2 1v1l-1 1-1 1-2 1-1 1-1 1h-1l-1 1h-8l-1-1h-2l-2-2-1-1-2-2-2-3-1-1v-9l1-2v-4l1-1v-2h1v-2l1-1v-3h1v-2l1-1v-2l1-1 1-2v-2l1-1v-1l1-1v-3l1-1v-7l-1-1v-2l-1-1-1-1-1-1-2-1-1-1-1-1zm52 49 1 1zm3 1 1 1v1-1zm-104 48-2 1a171 171 0 0 0-12 1 58 58 0 0 1 0 10h7c0 1-1 2-3 2h-4v3a208 208 0 0 1-1 8h6c7 0 7 0 7 2h-1l-1 1h-11l-2-1v-8l1-10v-9zm15 0c4 1 7 4 6 6-1 1-2 1-3-1l-4-3c-3-1-7 1-9 5l-1 1 1 2c0 2 1 4 2 3h11c4 3 5 9 2 12-4 3-9 4-13 3-3-1-5-4-4-5s1 0 2 1c4 4 13 2 14-3 0-2 0-3-2-5-1-2-3-2-7-1h-5l-2-4v-4c2-4 6-7 10-8zm21 0q7.5 3 6 6c-1 1-1 1-3-1l-4-3c-3-1-6 1-8 5l-1 1v2c1 2 2 4 3 3h10c4 3 5 9 2 12s-9 4-13 3c-2-1-5-4-4-5s1 0 3 1c3 4 12 2 13-3 1-2 1-3-1-5s-3-2-8-1h-4l-3-4v-2c-1-2 3-7 7-9l3-1zm11 1 2 1 2 3a61 61 0 0 0 4 6l7-8c2-2 2-3 4-3 1 0 1 1-1 3l-2 2-1 2-3 4-3 3v4a182 182 0 0 1 0 8c0 2 1 2-1 2l-1-8v-7l-1-1-2-4a82 82 0 0 1-5-5v-3zm-12 34-2 1a176 176 0 0 0-12 1v9h3c4 0 5 1 4 2l-4 1h-3v2a208 208 0 0 1-1 9h6l7 1-1 1-1 1h-7l-5-1h-1v-8l1-10v-9l1-1zm-48 0c3 1 5 2 5 4l1 2v22l-3-1v-1l1-6a70 70 0 0 1 0-7h-3l-3-1-5 1-4 1v4a19 19 0 0 1 0 5v3l-1 2c-2 0-1 1-1-6v-8c0-5 3-12 5-12l2-1c2-2 4-2 6-1m11 0v7c0 8 0 8 4 4l11-9h1v-1c2 0 2 0-4 6l-6 6 1 1 10 13-1 1-5-6-7-8-3 3-1 10c0 1-1 2-2 1a57 57 0 0 1 0-11v-3a119 119 0 0 1 0-12h1c-1-2-1-3 1-2m44 1h-2v3a195 195 0 0 1-1 9v1h7l2-3 2-3 2-5c-1-1-4-2-10-2m-59 1c-2 1-6 6-6 8l-1 1h1a47 47 0 0 1 13 0v-5c-1-3-5-5-7-4m56 14v7c0 2 0 2 1 0l2-1 1-2 2-3v-1zm-7 54v1l1 1-1-1z" fill="#d91668" data-color="4"/>
            <path d="m284 97-3 5-3 4-6 10-5 10-1 3-1 2h2v-1h2l1-1h2l1-1h2l1-1h2l1-1h1l1-1 1-1 2-1v-1h1l2-2 1-1 2-3v-1l1-1v-2l1-3-1-3v-2l-1-1v-2l-1-1-2-2h-1zm86 20h1v1-1zm-40 1-1 1h-1l-1 1h-1l-1 1h-1v1l-3 1-1 1-1 1-2 1-1 1h-1l-1 1v1h-1l-2 1-1 1h-1v1l-1 1-1 1h-1l-1 1-1 1-2 1-1 1-1 1-2 1-1 1-1 1-2 2h-1l-1 1-1 1-1 1h-2v1h-2v1h-2v1h-2l-1 1h-4a19 19 0 0 1-8 0h-3l-1-1h-1l-1-1h-2v-1l-2-3-1-1v-2l-2 3c1 0 1 1-1 3l-1 2-2 5-2 4-3 5-2 2v3l-4 7-4 6 1 1c5 5 2 13-4 13q-3 0 0 3l5 7v3l-3-3a78 78 0 0 1-6-9l-2 3-2 3-2 3v2l-2 1v1l-3 3a56 56 0 0 1-4 7l-2 3v2l-1 1-2 3a446 446 0 0 0-17 34l1 1v2l1 1v2h1v2l1 1v2l1 1v3l1 1v2l1 2v3l1 1v4l1 2v5l1 3v4l1 4v11l1 3v4l1 2v3l1 1v2l1 1v1l1 1v-1a4670 4670 0 0 0 9-20l-1-2v-1l-1-1v-1l-1-1v-1l-1-1v-2l-1-1a158 158 0 0 0-4-8v-2l-1-1v-2h-1v-3l-1-1v-1l-1-1v-2l-1-1v-3l-1-1v-3l-1-1v-3l-1-1a50 50 0 0 1 1-13v-2l1-1v-2l1-1 1-1 1-1h2l1-1h5l1 1h1v1l2 3 1 1v1l1 1v2l1 1v2l1 1v2h1v1l1 2v2h1v2h1v1l1 1v1l1 1 4 5h1l3 1h1l1-1 2-5 3-5-1-1a53 53 0 0 1 1-12v-1l3-2 1-1h1l1-1h5c2 0 2 0 1-1h-2l1-2 2-2 3-6a31 31 0 0 1 5-8l1-2 3-4a58 58 0 0 1 5-9l2-2 1-2 1-2 1-2 2-2 2-5 3-4 1-2 2-3 2-4 2-3 1-3 2-4 2-3-1-1v-1l-3-2-1-1-2-1-1-1v-1l-1-1-1-1v-9l1-1 1-1v-1l2-2h1l1-1h1l1-1v-1h2l1-1 3-1 1-1h1l1-1h1l1-1h1l1-1h1l1-1h1l2-1h1l1-1h2l1-1h1l1-3a755 755 0 0 0 1-3l-1 1 1-1 3-7 3-5 3-5 1-1v-1zm-31 62h1zl-1-1zm-43 1c5 1 7 4 5 6 0 1-1 1-2-1l-1-2-1-1c-4-1-5-1-7 1-2 1-5 4-4 6l2 4h11c4 4 5 9 1 12-4 4-11 4-15 1l-1-3c1-1 1-1 2 1 4 3 11 3 14-2 1-2 0-3-1-6-2-2-4-2-8-1l-5-1-2-4v-1c-1 0 0-3 2-5 2-3 5-4 8-5zm-21 5-1 3-2 3-2 3h1c6-1 9-4 7-8l-1-3zm56 30 1 1zl-1-1zm-8 13 1-1zm-16 29 1 1zm-24 16v-1zm-71 23-5 10a18 18 0 0 0 7-1v-1h3l1-3 1-1a46 46 0 0 0-1-13c0-2 0-2-6 9m41 48 1 1v-1zl-1-1z" fill="#e8562b" data-color="5"/>
            <path d="M98 53h-1l-1 1-4 3-1 1-1 1v2l-1 1v2h-1v19l1 1v3h1v3l1 1v1l1 1v1h1v2l1 1v1l5 6a128 128 0 0 0 7-12l2-2 1-2 4-7a110 110 0 0 1-1-10v-3l-1-2v-2l-1-1v-2l-1-1-1-1-1-1-2-3-1-1h-1l-1-1zM55 181h-6l-2 1h-3v1h-1l-1 1h-1l-1 1h-2l-2 2-1 1-2 3-2 1v1l-1 1v1l-1 1v13l1 1v2h1v1l1 1v2h1l1 2c1 2 1 2 2 1l1-1 1-3 2-4a47 47 0 0 1 6-10l2-3 1-1 1-2 2-2 1-3c1 0 2-1 2-3l3-3s2-3 1-4zm280 42a25 25 0 0 1-4 7l-1 1-2 3-1 2-2 3a17 17 0 0 1-2 3l-1 2-1 1-1 2 1 1v2l1 1v2l1 1v3l1 1v3l1 1v2l1 1v2l1 1v2h1v2l1 1v1l1 1v1h1l1 3 2 2v1l4 4h1l1 1 1 1h1l1 1h7v-1h1l1-2h1l1-1 3-4v-2l1-1v-4a114 114 0 0 0-1-24v-2l-1-1v-2h-1v-1l-1-2v-2h-1v-1l-2-2v-1l-2-2-3-4-2-1-1-1-1-1h-1l-1-1v-1h-2v-1h-2zs-1 0 0 0m-36 64a108 108 0 0 1-8 16h1l1-1h1l1-1h1c0-1 0-2 1-1 0 0 2-1 2-3a26 26 0 0 0 0-10c0-1 0 0 0 0" fill="#27a567" data-color="6"/>
        </g>
    </g>
</svg>
